<svg id="visual" viewBox="0 0 900 600" width="900" height="600" xmlns="http://www.w3.org/2000/svg" xmlns:xlink="http://www.w3.org/1999/xlink" version="1.1"><rect x="0" y="0" width="900" height="600" fill="#F9A8D4"></rect><path d="M0 62L21.5 65.8C43 69.7 86 77.3 128.8 76C171.7 74.7 214.3 64.3 257.2 65.3C300 66.3 343 78.7 385.8 87C428.7 95.3 471.3 99.7 514.2 97.2C557 94.7 600 85.3 642.8 82.7C685.7 80 728.3 84 771.2 92.5C814 101 857 114 878.5 120.5L900 127L900 0L878.5 0C857 0 814 0 771.2 0C728.3 0 685.7 0 642.8 0C600 0 557 0 514.2 0C471.3 0 428.7 0 385.8 0C343 0 300 0 257.2 0C214.3 0 171.7 0 128.8 0C86 0 43 0 21.5 0L0 0Z" fill="#FDE047" stroke-linecap="round" stroke-linejoin="miter"></path></svg>